<?xml version="1.0"?>
<svg id="Capa_1" xmlns="http://www.w3.org/2000/svg" version="1.1" viewBox="0 0 1559.06 561.55">
  
  <defs>
    
  </defs>
  
  <g>
    <path fill="#0066FF" d="M523.75,169.03c-10.97-25.35-28.59-41.6-51.19-43.03-25.02-1.59-53.72,15.01-68.78,47.21-13.88,29.68-24.99,60.16-31.72,75.71-6.83,15.77-16.87,25.49-32.31,27.12-18.88,1.99-35.14-11.72-47.05-31.25-10.39-17.03-30.97-49.46-41.98-60.36-10.35-10.23-22.16-23.05-46.77-22.65-19.45.31-55.34,9.9-71.74,76.86-7.14,29.18-9.9,59.59-3.79,95.78,5.64,33.39,15.63,62.21,22.36,78.09,2.32,5.47,5.91,11.18,8.69,14.69,7.99,10.1,21.29,9.45,26.88,6.7,6.09-3,13.09-10.24,10.56-26.77-1.22-7.99-4.76-19.67-6.75-26.17-6.1-19.93-14.22-43.98-14.93-61.11-.95-22.91,8.09-25.91,14.09-27.23,10.09-2.22,18.55,8.86,26.59,22.75,9.59,16.57,26.03,45.94,39.44,68.37,12.1,20.25,34.44,41.93,70.32,40.44,36.57-1.51,63.53-15.47,77.42-59.4,10.39-32.87,17.48-57.43,28.87-82.58,13.11-28.92,30.59-44.4,45.31-39.68,13.67,4.39,17.08,17.75,17.25,37.39.15,17.37-1.86,36.53-3.43,50.6-.57,5.11-1.59,15.38-1.17,21.08.83,11.21,5.68,22.41,18.3,24.2,13.45,1.91,24.24-8.84,28.55-21.83,1.7-5.12,3.15-12.96,3.93-18.52,3.95-28.07,4.98-46.94,3.2-75.67-2.09-33.59-8.66-64.22-20.13-90.73Z"></path>
    <path fill="#262423" d="M796.81,235.96c-4.37-2.95-9.72-4.43-16.04-4.43s-12.32,1.55-17.37,4.66c-5.05,3.11-8.97,7.45-11.76,13.02-.33.65-.63,1.32-.92,1.99-.54-1.69-1.16-3.34-1.96-4.89-2.42-4.65-5.82-8.28-10.21-10.88-4.39-2.6-9.46-3.9-15.2-3.9-6.07,0-11.52,1.42-16.33,4.26-4.82,2.84-8.62,6.66-11.42,11.47-.63,1.08-1.19,2.19-1.69,3.32v-16.38h-23.24v92.98h23.24v-45.56c0-6.05.9-11.38,2.7-15.99,1.8-4.61,4.27-8.16,7.42-10.66,3.15-2.5,6.69-3.75,10.61-3.75,3.1,0,5.72.79,7.86,2.39,2.14,1.59,3.74,3.83,4.82,6.71,1.07,2.88,1.61,6.27,1.61,10.15v56.72h23.24v-45.87c0-5.85.87-11.01,2.62-15.5,1.75-4.48,4.17-7.95,7.28-10.4,3.11-2.45,6.66-3.67,10.65-3.67,3.01,0,5.58.78,7.7,2.34,2.12,1.56,3.71,3.75,4.77,6.56,1.07,2.81,1.6,6.08,1.6,9.83v56.72h23.24v-58.42c0-7.77-1.11-14.44-3.33-20-2.22-5.57-5.52-9.83-9.89-12.78Z"></path>
    <path fill="#262423" d="M900.66,237.67c-7.28-4.09-15.69-6.14-25.21-6.14s-17.94,2.04-25.24,6.14c-7.3,4.09-12.96,9.85-16.97,17.28-4.01,7.43-6.01,16.01-6.01,25.74s2,18.31,6.01,25.74c4.01,7.43,9.66,13.19,16.97,17.28,7.3,4.09,15.72,6.14,25.24,6.14s17.93-2.05,25.21-6.14c7.28-4.09,12.93-9.85,16.94-17.28,4.01-7.43,6.01-16.01,6.01-25.74s-2-18.31-6.01-25.74c-4.01-7.43-9.65-13.19-16.94-17.28ZM896.43,295.92c-2,4.39-4.82,7.79-8.45,10.21-3.63,2.42-7.8,3.63-12.54,3.63s-8.95-1.21-12.58-3.63c-3.64-2.42-6.45-5.82-8.45-10.21-1.99-4.39-2.99-9.47-2.99-15.23s1-10.87,2.99-15.26c1.99-4.39,4.81-7.79,8.45-10.2,3.64-2.41,7.83-3.61,12.58-3.61s8.94,1.2,12.55,3.61c3.61,2.41,6.42,5.81,8.43,10.2,2,4.39,3.01,9.48,3.01,15.26s-1,10.84-3.01,15.23Z"></path>
    <polygon fill="#262423" points="976.15 305.43 954.01 234.2 929.31 234.2 962.07 327.17 990.18 327.17 1023 234.2 998.77 234.2 976.15 305.43"></polygon>
    <rect fill="#262423" x="1037.76" y="234.2" width="23.24" height="92.98"></rect>
    <path fill="#262423" d="M1056.74,192.72c-2.18-1.25-4.6-1.88-7.27-1.88s-5.09.63-7.27,1.88c-2.18,1.25-3.89,2.96-5.14,5.14-1.25,2.18-1.88,4.6-1.88,7.27s.63,5.09,1.88,7.27c1.25,2.18,2.96,3.9,5.14,5.16,2.18,1.26,4.6,1.89,7.27,1.89s5.09-.63,7.27-1.89c2.18-1.26,3.9-2.98,5.16-5.16,1.26-2.18,1.89-4.6,1.89-7.27s-.63-5.09-1.89-7.27c-1.26-2.18-2.98-3.89-5.16-5.14Z"></path>
    <path fill="#262423" d="M1146.2,275.94c-5.04-1.57-11.46-3.03-19.25-4.37-5.1-.91-9.06-1.73-11.89-2.46-2.82-.73-5.16-1.79-7.02-3.16-1.86-1.38-2.79-3.21-2.79-5.5,0-1.96.67-3.73,2-5.32,1.33-1.58,3.24-2.82,5.73-3.72,2.49-.9,5.38-1.35,8.66-1.35,4.17,0,7.6.6,10.29,1.81,2.68,1.21,4.62,2.88,5.79,5.02,1.18,2.14,1.66,4.6,1.46,7.39h22.5c.41-6.32-.87-11.96-3.86-16.91-2.99-4.95-7.56-8.83-13.72-11.64-6.16-2.81-13.63-4.21-22.41-4.21-7.83,0-14.79,1.17-20.87,3.52-6.08,2.35-10.86,5.79-14.32,10.34-3.46,4.55-5.19,10.02-5.19,16.43s1.82,11.53,5.47,15.25c3.65,3.72,7.98,6.4,13.02,8.04,5.03,1.64,11.44,3.2,19.23,4.66,5.08.99,9.04,1.88,11.87,2.67,2.83.78,5.18,1.87,7.05,3.25,1.87,1.38,2.8,3.21,2.8,5.49,0,2-.75,3.78-2.26,5.33-1.51,1.55-3.61,2.76-6.31,3.63-2.7.87-5.8,1.3-9.31,1.3-4.4,0-8.11-.58-11.14-1.74s-5.31-2.81-6.83-4.94c-1.53-2.14-2.3-4.65-2.32-7.55h-22.47c0,6.65,1.71,12.43,5.13,17.34,3.42,4.91,8.34,8.68,14.75,11.33,6.42,2.64,14.03,3.97,22.83,3.97,8.2,0,15.47-1.2,21.79-3.61,6.32-2.41,11.25-5.89,14.78-10.44s5.3-9.96,5.3-16.22c0-6.65-1.82-11.86-5.47-15.62-3.65-3.76-7.99-6.42-13.03-8Z"></path>
    <path fill="#262423" d="M1213.82,209.15h-23.24v25.04h-18.1v20.05h18.1v42.92c0,7.34,1.12,13.42,3.36,18.25,2.24,4.84,5.62,8.45,10.13,10.83,4.52,2.39,10.19,3.58,17.03,3.58,3.6,0,6.84-.3,9.75-.9,2.9-.6,5.45-1.5,7.64-2.7v-20.27c-1.69.95-3.24,1.7-4.63,2.25-1.39.55-2.75.94-4.08,1.18-1.32.24-2.72.36-4.18.36-2.77,0-5.01-.44-6.73-1.32-1.72-.88-2.99-2.24-3.81-4.09-.83-1.85-1.24-4.27-1.24-7.27v-42.83h26.65v-20.05h-26.65v-25.04Z"></path>
    <path fill="#262423" d="M1319.48,236.41c-6.33-3.25-13.99-4.88-22.98-4.88-8.18,0-15.22,1.44-21.11,4.32-5.89,2.88-10.32,6.81-13.28,11.78-2.96,4.97-4.3,10.52-4.01,16.66h24.08c-.27-2.25.11-4.36,1.15-6.34,1.03-1.97,2.69-3.56,4.96-4.76,2.27-1.2,5.08-1.8,8.43-1.8,4.28,0,7.81.81,10.6,2.42s4.87,4.04,6.23,7.28c1.36,3.24,2.05,7.34,2.05,12.27v.83c-2.59-.57-5.32-1.05-8.21-1.42-4.17-.54-8.33-.8-12.46-.8-8.7,0-16.26,1.2-22.69,3.61-6.42,2.41-11.38,5.87-14.86,10.4-3.48,4.53-5.22,9.9-5.22,16.12,0,5.35,1.3,10.12,3.9,14.32,2.6,4.19,6.33,7.48,11.19,9.86,4.85,2.38,10.56,3.57,17.11,3.57,8.51,0,15.82-2.05,21.93-6.14,4.73-3.17,8.58-7.43,11.58-12.74v16.21h20.98v-53.74c0-8.91-1.64-16.49-4.93-22.75-3.29-6.26-8.09-11.02-14.43-14.27ZM1304,307.72c-4.38,2.72-9.26,4.08-14.63,4.08-2.85,0-5.31-.4-7.36-1.21-2.06-.81-3.64-1.99-4.74-3.57-1.11-1.57-1.66-3.48-1.66-5.73,0-2.66.77-4.96,2.31-6.89,1.54-1.93,3.91-3.42,7.1-4.46,3.19-1.04,7.17-1.56,11.95-1.56,3.31,0,6.71.26,10.21.77,3.27.48,6.35,1.2,9.27,2.1-.56,1.76-1.25,3.45-2.08,5.07-2.53,4.89-5.99,8.69-10.37,11.4Z"></path>
    <path fill="#262423" d="M1430.95,244.8c-2.05-4.19-4.95-7.46-8.71-9.78-3.76-2.33-8.13-3.49-13.11-3.49-5.95,0-11.17,1.68-15.67,5.05-4.26,3.19-7.6,7.63-10.03,13.3v-15.68h-23.24v92.98h23.24v-45.71c0-5.89.7-11.07,2.09-15.56,1.4-4.48,3.33-7.95,5.81-10.38,2.48-2.44,5.32-3.66,8.52-3.66,2.07,0,3.86.5,5.39,1.5,1.53,1,2.71,2.42,3.55,4.26s1.25,3.98,1.25,6.41c0,1.9-.25,3.84-.76,5.83-.51,1.98-1.29,4.01-2.34,6.07h23.86c.68-1.71,1.26-3.49,1.74-5.32.47-1.83.84-3.7,1.08-5.61.25-1.91.37-3.83.37-5.75,0-5.45-1.02-10.28-3.07-14.47Z"></path>
  </g>
</svg>