<?xml version="1.0"?>
<svg id="Capa_1" xmlns="http://www.w3.org/2000/svg" version="1.1" viewBox="0 0 708.66 595.31">
  
  <defs>
    
  </defs>
  
  <g>
    <path fill="#262423" d="M183.85,436c-2.97-2.01-6.6-3.01-10.9-3.01s-8.37,1.06-11.8,3.17-6.09,5.06-7.99,8.84c-.22.44-.43.9-.62,1.35-.37-1.15-.79-2.27-1.33-3.32-1.64-3.16-3.95-5.62-6.94-7.39s-6.42-2.65-10.33-2.65c-4.13,0-7.82.96-11.09,2.89-3.27,1.93-5.86,4.53-7.76,7.79-.43.73-.81,1.49-1.15,2.25v-11.13h-15.79v63.16h15.79v-30.95c0-4.11.61-7.73,1.83-10.86,1.22-3.13,2.9-5.54,5.04-7.24,2.14-1.7,4.54-2.55,7.21-2.55,2.11,0,3.89.54,5.34,1.62,1.45,1.08,2.54,2.6,3.27,4.56.73,1.96,1.09,4.26,1.09,6.9v38.53h15.79v-31.16c0-3.97.59-7.48,1.78-10.53,1.19-3.05,2.83-5.4,4.95-7.06,2.11-1.66,4.52-2.49,7.23-2.49,2.05,0,3.79.53,5.23,1.59,1.44,1.06,2.52,2.55,3.24,4.45.72,1.91,1.09,4.13,1.09,6.67v38.53h15.79v-39.69c0-5.28-.75-9.81-2.26-13.59-1.51-3.78-3.75-6.68-6.72-8.68Z"></path>
    <path fill="#262423" d="M254.4,437.16c-4.95-2.78-10.66-4.17-17.13-4.17s-12.19,1.39-17.15,4.17c-4.96,2.78-8.8,6.69-11.53,11.74-2.72,5.05-4.09,10.87-4.09,17.48s1.36,12.44,4.09,17.49c2.72,5.05,6.56,8.96,11.53,11.74,4.96,2.78,10.68,4.17,17.15,4.17s12.18-1.39,17.13-4.17c4.95-2.78,8.78-6.69,11.5-11.74,2.72-5.05,4.09-10.87,4.09-17.49s-1.36-12.44-4.09-17.48c-2.72-5.05-6.56-8.96-11.5-11.74ZM251.52,476.73c-1.36,2.98-3.27,5.29-5.74,6.94-2.46,1.64-5.3,2.46-8.52,2.46s-6.08-.82-8.55-2.46-4.38-3.95-5.74-6.94-2.03-6.43-2.03-10.35.68-7.39,2.03-10.37c1.35-2.98,3.27-5.29,5.74-6.93,2.47-1.63,5.32-2.45,8.55-2.45s6.07.82,8.53,2.45c2.45,1.64,4.36,3.94,5.73,6.93,1.36,2.98,2.04,6.44,2.04,10.37s-.68,7.37-2.04,10.35Z"></path>
    <polygon fill="#262423" points="305.68 483.19 290.64 434.8 273.86 434.8 296.11 497.96 315.21 497.96 337.5 434.8 321.04 434.8 305.68 483.19"></polygon>
    <rect fill="#262423" x="347.53" y="434.8" width="15.79" height="63.16"></rect>
    <path fill="#262423" d="M360.42,406.63c-1.48-.85-3.13-1.27-4.94-1.27s-3.46.42-4.94,1.27-2.65,2.01-3.49,3.49-1.27,3.13-1.27,4.94.42,3.46,1.27,4.94c.85,1.48,2.01,2.65,3.49,3.5,1.48.86,3.13,1.28,4.94,1.28s3.46-.43,4.94-1.28c1.48-.85,2.65-2.02,3.51-3.5s1.28-3.13,1.28-4.94-.43-3.46-1.28-4.94c-.86-1.48-2.02-2.65-3.51-3.49Z"></path>
    <path fill="#262423" d="M421.19,463.16c-3.42-1.07-7.78-2.06-13.07-2.97-3.47-.62-6.16-1.18-8.07-1.67-1.92-.5-3.5-1.21-4.77-2.15-1.26-.93-1.9-2.18-1.9-3.74,0-1.33.45-2.54,1.36-3.61.9-1.07,2.2-1.92,3.89-2.53,1.69-.61,3.65-.92,5.88-.92,2.84,0,5.17.41,6.99,1.23,1.82.82,3.14,1.96,3.94,3.41.8,1.45,1.13,3.13.99,5.02h15.28c.28-4.29-.59-8.12-2.62-11.48-2.03-3.36-5.13-6-9.32-7.91s-9.26-2.86-15.22-2.86c-5.32,0-10.05.8-14.18,2.39-4.13,1.59-7.38,3.93-9.73,7.02-2.35,3.09-3.53,6.81-3.53,11.16s1.24,7.83,3.72,10.36c2.48,2.53,5.42,4.35,8.84,5.46,3.42,1.12,7.77,2.17,13.06,3.17,3.45.67,6.14,1.28,8.06,1.81,1.92.53,3.52,1.27,4.79,2.21,1.27.94,1.9,2.18,1.9,3.73,0,1.36-.51,2.57-1.54,3.62-1.02,1.05-2.45,1.87-4.29,2.46-1.83.59-3.94.88-6.33.88-2.99,0-5.51-.39-7.57-1.18-2.06-.79-3.6-1.91-4.64-3.36-1.04-1.45-1.56-3.16-1.58-5.13h-15.26c0,4.52,1.16,8.45,3.48,11.78,2.32,3.33,5.66,5.9,10.02,7.7,4.36,1.8,9.53,2.69,15.51,2.69,5.57,0,10.51-.82,14.8-2.45,4.29-1.63,7.64-4,10.04-7.09,2.4-3.09,3.6-6.77,3.6-11.02,0-4.52-1.24-8.06-3.72-10.61-2.48-2.55-5.43-4.36-8.85-5.43Z"></path>
    <path fill="#262423" d="M467.13,417.79h-15.79v17.01h-12.3v13.62h12.3v29.16c0,4.98.76,9.12,2.28,12.4,1.52,3.29,3.82,5.74,6.88,7.36,3.07,1.62,6.92,2.43,11.57,2.43,2.44,0,4.65-.2,6.62-.61,1.97-.41,3.7-1.02,5.19-1.83v-13.77c-1.15.65-2.2,1.15-3.15,1.53-.95.37-1.87.64-2.77.8-.9.16-1.85.24-2.84.24-1.88,0-3.4-.3-4.57-.89-1.17-.6-2.03-1.52-2.59-2.78-.56-1.26-.84-2.9-.84-4.94v-29.1h18.11v-13.62h-18.11v-17.01Z"></path>
    <path fill="#262423" d="M538.9,436.31c-4.3-2.21-9.51-3.32-15.61-3.32-5.56,0-10.34.98-14.34,2.94-4,1.96-7.01,4.62-9.02,8-2.01,3.38-2.92,7.15-2.73,11.32h16.36c-.18-1.53.08-2.96.78-4.31.7-1.34,1.82-2.42,3.37-3.23,1.54-.81,3.45-1.22,5.73-1.22,2.91,0,5.31.55,7.2,1.64,1.89,1.09,3.31,2.74,4.23,4.95.93,2.2,1.39,4.98,1.39,8.34v.57c-1.76-.39-3.62-.71-5.58-.97-2.84-.36-5.66-.55-8.46-.55-5.91,0-11.05.82-15.41,2.45-4.36,1.64-7.73,3.99-10.09,7.06-2.36,3.07-3.55,6.72-3.55,10.95,0,3.64.88,6.88,2.65,9.73s4.3,5.08,7.6,6.69c3.3,1.61,7.17,2.42,11.62,2.42,5.78,0,10.75-1.39,14.89-4.17,3.21-2.15,5.83-5.04,7.86-8.65v11.01h14.25v-36.51c0-6.05-1.12-11.2-3.35-15.45-2.23-4.25-5.5-7.49-9.8-9.7ZM535.43,477c-1.72,3.32-4.07,5.9-7.04,7.75-2.98,1.85-6.29,2.77-9.94,2.77-1.94,0-3.6-.27-5-.82-1.4-.55-2.47-1.35-3.22-2.42-.75-1.07-1.13-2.36-1.13-3.89,0-1.81.52-3.37,1.57-4.68,1.05-1.31,2.65-2.32,4.82-3.03,2.17-.71,4.87-1.06,8.12-1.06,2.25,0,4.56.18,6.94.53,2.22.33,4.31.81,6.3,1.43-.38,1.19-.85,2.35-1.42,3.44Z"></path>
    <path fill="#262423" d="M614.62,442c-1.39-2.85-3.36-5.06-5.92-6.64-2.55-1.58-5.52-2.37-8.91-2.37-4.04,0-7.59,1.14-10.64,3.43-2.89,2.17-5.16,5.19-6.81,9.03v-10.65h-15.79v63.16h15.79v-31.05c0-4,.47-7.52,1.42-10.57.95-3.05,2.26-5.4,3.95-7.05,1.68-1.66,3.61-2.48,5.79-2.48,1.4,0,2.62.34,3.66,1.02,1.04.68,1.84,1.65,2.41,2.89s.85,2.7.85,4.36c0,1.29-.17,2.61-.52,3.96-.34,1.35-.87,2.72-1.59,4.13h16.21c.46-1.16.86-2.37,1.18-3.61.32-1.24.57-2.51.74-3.81.17-1.3.25-2.6.25-3.91,0-3.71-.69-6.98-2.08-9.83Z"></path>
  </g>
  <path fill="#0066FF" d="M502.49,129.39c-8.42-19.47-21.96-31.95-39.32-33.05-19.21-1.22-41.26,11.53-52.83,36.26-10.66,22.8-19.19,46.2-24.37,58.15-5.25,12.12-12.96,19.58-24.82,20.83-14.5,1.53-26.99-9-36.14-24-7.98-13.08-23.79-37.99-32.24-46.36-7.95-7.86-17.02-17.7-35.92-17.4-14.94.24-42.5,7.6-55.1,59.03-5.49,22.41-7.61,45.76-2.91,73.57,4.33,25.64,12,47.78,17.17,59.97,1.78,4.2,4.54,8.59,6.68,11.28,6.14,7.76,16.35,7.26,20.64,5.15,4.68-2.3,10.06-7.87,8.11-20.56-.94-6.13-3.65-15.11-5.18-20.1-4.69-15.31-10.92-33.78-11.47-46.94-.73-17.6,6.21-19.9,10.82-20.92,7.75-1.71,14.25,6.8,20.42,17.47,7.36,12.73,19.99,35.28,30.29,52.51,9.3,15.55,26.45,32.2,54.01,31.06,28.09-1.16,48.8-11.88,59.46-45.62,7.98-25.24,13.42-44.11,22.18-63.42,10.07-22.21,23.5-34.1,34.8-30.47,10.5,3.37,13.12,13.63,13.25,28.72.11,13.34-1.43,28.05-2.63,38.86-.44,3.92-1.22,11.81-.9,16.19.63,8.61,4.36,17.21,14.06,18.59,10.33,1.47,18.62-6.79,21.93-16.76,1.31-3.93,2.42-9.95,3.02-14.22,3.04-21.56,3.82-36.06,2.45-58.12-1.6-25.8-6.65-49.32-15.46-69.68Z"></path>
</svg>