<?xml version="1.0"?>
<svg id="Capa_1" xmlns="http://www.w3.org/2000/svg" version="1.1" viewBox="0 0 425.2 355.01">
  
  <defs>
    
  </defs>
  
  <path fill="#262423" d="M340.39,223.86c1.08-3.24,2-8.21,2.49-11.73,2.5-17.78,3.15-29.74,2.02-47.94-1.32-21.28-5.48-40.68-12.75-57.48-6.95-16.06-18.11-26.35-32.43-27.26-15.85-1.01-34.03,9.51-43.57,29.91-8.79,18.8-15.83,38.11-20.1,47.96-4.33,9.99-10.69,16.15-20.47,17.18-11.96,1.26-22.26-7.42-29.81-19.8-6.58-10.79-19.62-31.33-26.6-38.24-6.55-6.48-14.04-14.6-29.63-14.35-12.32.19-35.06,6.27-45.45,48.69-4.52,18.48-6.27,37.75-2.4,60.68,3.57,21.15,9.9,39.41,14.17,49.47,1.47,3.47,3.75,7.08,5.51,9.31,5.06,6.4,13.49,5.99,17.03,4.25,3.86-1.9,8.29-6.49,6.69-16.96-.78-5.06-3.01-12.46-4.27-16.58-3.87-12.63-9.01-27.86-9.46-38.71-.6-14.52,5.12-16.42,8.93-17.25,6.39-1.41,11.75,5.61,16.84,14.41,6.07,10.5,16.49,29.1,24.98,43.31,7.67,12.83,21.82,26.56,44.54,25.62,23.17-.96,40.25-9.8,49.05-37.63,6.58-20.82,11.07-36.38,18.29-52.31,8.3-18.32,19.38-28.13,28.71-25.13,8.66,2.78,10.82,11.24,10.93,23.69.09,11.01-1.18,23.14-2.17,32.05-.36,3.23-1.01,9.74-.74,13.36.52,7.1,3.6,14.2,11.6,15.33,8.52,1.21,15.36-5.6,18.08-13.83Z"></path>
</svg>