<?xml version="1.0"?>
<svg id="Capa_1" xmlns="http://www.w3.org/2000/svg" version="1.1" viewBox="0 0 989.29 315.76">
  
  <defs>
    
  </defs>
  
  <g>
    <path fill="#262423" d="M246.27,135.53c-4.29-2.9-9.54-4.36-15.75-4.36s-12.01,1.51-16.92,4.52c-4.9,3.01-8.71,7.22-11.41,12.62-.33.66-.64,1.34-.94,2.03-.53-1.66-1.15-3.28-1.95-4.81-2.38-4.52-5.73-8.05-10.04-10.57-4.32-2.53-9.26-3.79-14.82-3.79-5.93,0-11.25,1.38-15.98,4.14-4.72,2.76-8.46,6.51-11.21,11.26-.62,1.08-1.18,2.18-1.67,3.31v-16.07h-23.67v91.03h23.67v-44.66c0-5.83.86-10.94,2.58-15.35,1.72-4.41,4.08-7.81,7.08-10.2,3-2.39,6.38-3.58,10.12-3.58,2.93,0,5.42.76,7.45,2.27,2.03,1.52,3.57,3.65,4.6,6.4,1.03,2.75,1.55,5.99,1.55,9.71v55.41h23.7v-45.03c0-5.58.82-10.51,2.47-14.78,1.65-4.27,3.96-7.57,6.93-9.91,2.97-2.34,6.35-3.5,10.13-3.5,2.85,0,5.29.74,7.3,2.22,2.01,1.48,3.53,3.56,4.55,6.24,1.02,2.68,1.53,5.8,1.53,9.36v55.41h23.67v-56.83c0-7.73-1.09-14.35-3.28-19.86-2.18-5.51-5.42-9.72-9.71-12.62Z"></path>
    <path fill="#262423" d="M347.13,137.17c-7.18-4-15.47-5.99-24.85-5.99s-17.71,2-24.91,5.99c-7.2,3.99-12.78,9.63-16.72,16.92-3.94,7.28-5.92,15.7-5.92,25.24s1.97,17.96,5.92,25.25c3.94,7.28,9.52,12.92,16.72,16.92,7.2,3.99,15.5,5.99,24.91,5.99s17.67-2,24.85-5.99c7.18-4,12.74-9.64,16.69-16.92,3.94-7.28,5.91-15.7,5.91-25.25s-1.97-17.96-5.91-25.24c-3.94-7.28-9.51-12.92-16.69-16.92ZM342.28,193.9c-1.91,4.21-4.6,7.46-8.06,9.77-3.46,2.31-7.44,3.46-11.96,3.46s-8.56-1.15-12.03-3.46c-3.47-2.31-6.16-5.56-8.07-9.77-1.91-4.21-2.87-9.06-2.87-14.56s.96-10.41,2.87-14.61c1.91-4.2,4.6-7.44,8.07-9.74,3.47-2.3,7.48-3.44,12.03-3.44s8.53,1.15,11.98,3.44c3.46,2.3,6.14,5.54,8.04,9.74,1.9,4.2,2.85,9.07,2.85,14.61s-.96,10.36-2.87,14.56Z"></path>
    <polygon fill="#262423" points="420.22 203.04 399.1 133.82 373.94 133.82 405.83 224.85 434.6 224.85 466.55 133.82 441.85 133.82 420.22 203.04"></polygon>
    <path fill="#262423" d="M498.99,92.9c-2.19-1.25-4.62-1.88-7.31-1.88s-5.1.63-7.29,1.88c-2.18,1.26-3.9,2.97-5.16,5.16-1.26,2.18-1.88,4.62-1.88,7.31s.62,5.1,1.88,7.28c1.26,2.19,2.97,3.9,5.16,5.16,2.19,1.25,4.61,1.88,7.29,1.88s5.13-.63,7.31-1.88c2.18-1.25,3.9-2.97,5.16-5.16,1.25-2.18,1.88-4.61,1.88-7.28s-.63-5.13-1.88-7.31c-1.26-2.19-2.97-3.9-5.16-5.16Z"></path>
    <rect fill="#262423" x="479.75" y="133.82" width="23.66" height="91.03"></rect>
    <path fill="#262423" d="M586.05,174.33c-4.97-1.54-11.27-2.94-18.92-4.22-4.9-.85-8.69-1.62-11.4-2.31-2.7-.69-4.94-1.68-6.72-2.99-1.78-1.3-2.67-3.03-2.67-5.17,0-1.82.62-3.47,1.87-4.95,1.24-1.48,3.03-2.64,5.37-3.49,2.33-.85,5.07-1.28,8.21-1.28,3.92,0,7.15.57,9.69,1.7,2.54,1.13,4.37,2.7,5.49,4.69,1.13,1.99,1.6,4.3,1.44,6.93h22.91c.34-6.23-.97-11.77-3.94-16.63-2.97-4.86-7.49-8.64-13.53-11.36-6.05-2.72-13.39-4.08-22.03-4.08-7.75,0-14.63,1.15-20.63,3.46-6.01,2.31-10.72,5.7-14.12,10.18-3.41,4.48-5.11,9.86-5.11,16.13s1.81,11.43,5.43,15.11c3.62,3.68,7.91,6.33,12.87,7.93,4.96,1.61,11.27,3.13,18.93,4.57,4.88.93,8.66,1.76,11.36,2.5,2.7.74,4.94,1.76,6.72,3.05,1.78,1.3,2.67,2.99,2.67,5.1,0,1.88-.72,3.55-2.15,5.01-1.44,1.46-3.44,2.59-6.01,3.41-2.57.82-5.52,1.23-8.86,1.23-4.13,0-7.63-.54-10.5-1.62-2.87-1.08-5.04-2.61-6.5-4.6-1.45-1.98-2.19-4.32-2.21-7.01h-22.91c.02,6.45,1.72,12.08,5.1,16.87,3.38,4.79,8.23,8.49,14.55,11.09,6.32,2.6,13.81,3.9,22.47,3.9,8.11,0,15.29-1.18,21.52-3.55,6.24-2.37,11.12-5.79,14.63-10.29,3.51-4.49,5.26-9.82,5.26-15.99,0-6.59-1.8-11.75-5.41-15.46-3.61-3.71-7.9-6.34-12.86-7.88Z"></path>
    <path fill="#262423" d="M652.27,109.18h-23.7v24.64h-17.84v20.36h17.84v40.96c0,7.26,1.12,13.29,3.35,18.07,2.23,4.78,5.6,8.36,10.1,10.73,4.5,2.37,10.17,3.55,17.01,3.55,3.62,0,6.88-.3,9.78-.91,2.9-.61,5.45-1.53,7.63-2.76v-20.57c-1.7.99-3.24,1.77-4.62,2.32-1.39.56-2.73.96-4.04,1.2-1.31.24-2.68.37-4.14.37-2.67,0-4.84-.42-6.5-1.26-1.66-.84-2.89-2.14-3.68-3.9-.8-1.76-1.2-4.06-1.2-6.89v-40.9h26.12v-20.36h-26.12v-24.64Z"></path>
    <path fill="#262423" d="M755.12,135.96c-6.26-3.19-13.83-4.78-22.71-4.78-8.03,0-14.96,1.4-20.78,4.19-5.83,2.79-10.22,6.62-13.18,11.48-2.97,4.87-4.32,10.33-4.08,16.4h24.46c-.21-2.12.19-4.1,1.16-5.93.98-1.83,2.55-3.29,4.71-4.38,2.15-1.09,4.81-1.64,7.96-1.64,4.06,0,7.42.76,10.07,2.29,2.65,1.53,4.62,3.83,5.92,6.9,1.29,3.08,1.94,6.94,1.94,11.59v.85c-2.47-.53-5.07-.97-7.83-1.32-4.06-.52-8.12-.77-12.17-.77-8.54,0-15.96,1.17-22.25,3.52-6.3,2.35-11.15,5.74-14.57,10.18-3.41,4.44-5.11,9.7-5.11,15.79,0,5.22,1.26,9.88,3.79,13.99,2.53,4.11,6.18,7.33,10.94,9.66,4.77,2.34,10.36,3.5,16.79,3.5,8.37,0,15.56-2.01,21.56-6.04,4.6-3.09,8.35-7.23,11.27-12.41v15.81h21.24v-52.68c0-8.72-1.62-16.14-4.87-22.25-3.25-6.12-8-10.77-14.26-13.96ZM749.67,194.19c-2.44,4.76-5.79,8.48-10.04,11.14-4.25,2.66-8.97,3.99-14.17,3.99-2.69,0-5.01-.38-6.96-1.14-1.95-.76-3.45-1.88-4.49-3.37-1.04-1.49-1.56-3.29-1.56-5.42,0-2.51.72-4.67,2.17-6.48,1.45-1.81,3.68-3.21,6.69-4.19,3.01-.98,6.82-1.47,11.41-1.47,3.1,0,6.29.24,9.6.71,3.19.46,6.22,1.14,9.11,2.03-.49,1.44-1.06,2.84-1.75,4.19Z"></path>
    <path fill="#262423" d="M864.32,144.35c-2.03-4.17-4.92-7.4-8.65-9.71-3.74-2.31-8.07-3.46-13-3.46-5.8,0-10.9,1.6-15.29,4.81-4.29,3.14-7.63,7.54-10.01,13.19v-15.36h-23.66v91.03h23.66v-44.82c0-5.62.68-10.58,2.02-14.87,1.35-4.29,3.21-7.6,5.6-9.94,2.39-2.34,5.12-3.5,8.19-3.5,2,0,3.74.49,5.22,1.47,1.47.98,2.62,2.37,3.43,4.16.81,1.79,1.21,3.88,1.21,6.26,0,1.86-.25,3.77-.74,5.74-.5,1.96-1.26,3.97-2.29,6.04h24.24c.67-1.7,1.24-3.46,1.7-5.28.47-1.82.82-3.69,1.06-5.6.24-1.91.36-3.82.36-5.72,0-5.46-1.02-10.28-3.05-14.44Z"></path>
  </g>
</svg>